# xmcd
#
# Track frame offsets: 
#        150
#        20117
#        47228
#        68528
#        96717
#        111591
#        133189
#        149232
#        177697
#        204413
#        224335
#        244498
#        267789
#
# Disc length: 3850 seconds
#
# Revision: 0
# Processed by: cddbd v1.5.2PL0 Copyright (c) Steve Scherf et al.
# Submitted via: ExactAudioCopy v0.99pb4
#
DISCID=e20f080d
DTITLE=Reverend Raven and the Chain Smokin' Altar Boys - Shake Your Bo
DTITLE=ogie
DYEAR=2010
DGENRE=Blues
TTITLE0=Looking For Love
TTITLE1=Stomping and Shouting
TTITLE2=You Didn't Even Say Goodbye
TTITLE3=Just Count The Days
TTITLE4=She's Murder
TTITLE5=Bricks in My Pillow
TTITLE6=Like Wolf
TTITLE7=The Woman I Love
TTITLE8=I Can Do You Right
TTITLE9=PT's Home Cooking
TTITLE10=Mail Box Blues
TTITLE11=Walking To Chicago
TTITLE12=Shake Your Boogie
EXTD=
EXTT0=
EXTT1=
EXTT2=
EXTT3=
EXTT4=
EXTT5=
EXTT6=
EXTT7=
EXTT8=
EXTT9=
EXTT10=
EXTT11=
EXTT12=
PLAYORDER=
